<svg xmlns="http://www.w3.org/2000/svg" width="134" height="41" fill="none">
    <path fill="#172B41" fill-rule="evenodd" d="M92.8347 32.2263c-1.2211.7431-2.6493 1.1726-4.1684 1.1726-4.4334 0-8.0915-3.6581-8.0915-8.0915s3.6581-8.0915 8.0915-8.0915c1.5191 0 2.9473.4296 4.1684 1.1726v-7.3453h3.9231v22.3556h-3.9231v-1.1725Zm-.0003-6.7962c0 2.3021-1.8663 4.1683-4.1684 4.1683-2.3021 0-4.1683-1.8662-4.1683-4.1683v-.2452c0-2.3021 1.8662-4.1684 4.1683-4.1684 2.3021 0 4.1684 1.8663 4.1684 4.1684v.2452Z" clip-rule="evenodd"/>
    <path fill="#172B41" d="M35.457 25.3073c0-4.4688 3.6227-8.0915 8.0915-8.0915h.4904v3.8006h-.4904c-2.3021 0-4.1683 1.8662-4.1683 4.1683v8.0915H35.457v-7.9689Z"/>
    <path fill="#172B41" fill-rule="evenodd" d="M17.6836 25.3073c0-4.4334 3.6581-8.0915 8.0915-8.0915s8.0915 3.6581 8.0915 8.0915-3.6581 8.0915-8.0915 8.0915c-1.5191 0-2.9472-.4295-4.1683-1.1725v8.7736h-3.9231V25.3401l-.0001-.0328Zm3.9233-.1225c0-2.3021 1.8663-4.1683 4.1684-4.1683 2.3021 0 4.1683 1.8662 4.1683 4.1683v.2452c0 2.3022-1.8662 4.1684-4.1683 4.1684-2.3021 0-4.1684-1.8662-4.1684-4.1684v-.2452Zm41.315.1225c0-4.4334 3.6581-8.0915 8.0915-8.0915s8.0915 3.6581 8.0915 8.0915h.0002v7.9689h-3.9232v-1.0501c-1.2211.7432-2.6493 1.1727-4.1685 1.1727-4.4334 0-8.0915-3.6581-8.0915-8.0915Zm3.9233-.1225c0-2.3021 1.8662-4.1683 4.1684-4.1683 2.3021 0 4.1683 1.8662 4.1683 4.1683v.2452c0 2.3022-1.8662 4.1684-4.1683 4.1684-2.3022 0-4.1684-1.8662-4.1684-4.1684v-.2452Zm-21.8257.1225c0-4.4334 3.6581-8.0915 8.0915-8.0915 4.3925 0 8.024 3.5909 8.0906 7.969h.001v1.5938h-.0002v-.0001h-7.2333v.0001h-4.8033c.5605 1.6403 2.1152 2.8198 3.9453 2.8198 1.2148 0 2.3082-.5196 3.07-1.3487h4.4597c-1.1891 3.0001-4.1317 5.1491-7.5298 5.1491-4.4334 0-8.0915-3.6581-8.0915-8.0915Zm4.0709-1.2259c.4837-1.7666 2.1006-3.0649 4.0207-3.0649 1.9202 0 3.5371 1.2983 4.0208 3.0649h-8.0415ZM9.1437 13.132c-.8243-.1524-1.6968-.0491-2.4626.3296-1.6698.826-2.0647 2.5085-1.2898 3.7565.478.77 1.5162 1.17 3.4087 1.6179.9019.2135 2.3863.5959 3.7778 1.3713 1.4055.7831 2.9046 2.076 3.4918 4.1728a6.918 6.918 0 0 1 .2584 1.8953c-.0135 3.4743-2.6141 6.3953-6.1614 7.1819-4.1217.914-8.568-1.2892-9.7247-5.3659l-.0051-.0173a4.4999 4.4999 0 0 1-.029-.1031 7.514 7.514 0 0 1-.0802-.3285c-.061-.2749-.1343-.6633-.2028-1.1767l3.8898-.5186c.0541.4063.1082.6839.144.8449a3.603 3.603 0 0 0 .0402.1653l.0052.0164.01.0353c.499 1.7822 2.685 3.1533 5.103 2.6171 1.9863-.4404 3.0813-1.9513 3.0868-3.366a2.9953 2.9953 0 0 0-.1129-.8218c-.2054-.7334-.748-1.3155-1.6232-1.8032-.8893-.4956-1.9246-.78-2.7716-.9805l-.0562-.0133c-1.6131-.3816-4.3375-1.026-5.7825-3.3535-2.1202-3.4148-.6463-7.5975 2.884-9.3437 1.5707-.777 3.3097-.968 4.9158-.671 1.9581.3621 3.8217 1.4734 4.9474 3.2838.1303.2077.4508.7452.6571 1.2267l-3.6069 1.5458c-.0355-.0829-.1008-.2125-.1844-.3631a7.6339 7.6339 0 0 0-.1914-.3261l-.003-.0048-.003-.0049c-.4688-.755-1.3103-1.3102-2.3293-1.4986Z" clip-rule="evenodd"/>
    <path fill="#06F" d="M111.801 22.0865V.0001h11.043c6.099 0 11.043 4.9442 11.043 11.0432s-4.944 11.0432-11.043 11.0432h-11.043Z"/>
    <path fill="#05E0E0" d="M100.758 11.0432h22.086v22.0865h-11.043c-6.099 0-11.043-4.9442-11.043-11.0432V11.0432Z"/>
    <path fill="url(#a)" d="m111.801 0 11.043 11.0432v22.0865l-11.043-11.0432V0Z"/>
    <defs>
        <linearGradient id="a" x1="122.844" x2="111.801" y1="11.0432" y2="22.0865" gradientUnits="userSpaceOnUse">
            <stop stop-color="#06F"/>
            <stop offset="1" stop-color="#05E0E0"/>
        </linearGradient>
    </defs>
</svg>