<svg xmlns="http://www.w3.org/2000/svg" width="128" height="128" fill="none">
    <circle cx="64" cy="64" r="63" stroke="url(#a)" stroke-width="2"/>
    <path fill="#172B41" d="M50.67 56c0-1.47 1.2-2.67 2.66-2.67h21.34c1.47 0 2.66 1.2 2.66 2.67v16a2.67 2.67 0 0 1-2.66 2.67H53.33A2.67 2.67 0 0 1 50.67 72V56Zm4.69 0L64 63.56 72.64 56H55.36Zm19.3 1.77-9.78 8.57c-.5.44-1.25.44-1.76 0l-9.79-8.57V72h21.34V57.77Z"/>
    <defs>
        <linearGradient id="a" x1="128" x2="102.4" y1="42.67" y2="119.47" gradientUnits="userSpaceOnUse">
            <stop stop-color="#06F"/>
            <stop offset="1" stop-color="#05E0E0"/>
        </linearGradient>
    </defs>
</svg>