<svg width="26" height="16" viewBox="0 0 26 16" fill="none" xmlns="http://www.w3.org/2000/svg">
    <path fill-rule="evenodd" clip-rule="evenodd" d="M7.84402 0C9.77366 0.0282134 11.1389 0.582088 11.9441 1.66311C12.4273 2.32687 12.6696 3.11981 12.6696 4.04492C12.6696 4.99675 12.4273 5.76445 11.9381 6.34357C11.6642 6.66729 11.2623 6.96427 10.731 7.23155C11.5377 7.5226 12.1458 7.98144 12.5597 8.60956C12.9692 9.23619 13.1754 9.99944 13.1754 10.8963C13.1754 11.8214 12.9406 12.6515 12.4694 13.3851C12.1714 13.8706 11.7981 14.2805 11.3496 14.6131C10.8453 14.9947 10.2508 15.2546 9.56293 15.3971C8.87507 15.5382 8.13151 15.6065 7.32774 15.6065H0.199219V0H7.84402ZM6.79639 2.70996H3.35254V6.15349H7.19977C7.88463 6.15349 8.44305 6.0243 8.87353 5.76592C9.301 5.50755 9.51624 5.05019 9.51624 4.39683C9.51624 3.66773 9.23327 3.1881 8.66732 2.95349C8.17663 2.79163 7.55349 2.70996 6.79639 2.70996ZM3.35254 8.73535H7.24794C7.92527 8.74129 8.45359 8.83039 8.82988 8.99967C9.5027 9.30408 9.83685 9.86092 9.83685 10.6747C9.83685 11.6339 9.49065 12.2813 8.79677 12.6229C8.41596 12.8055 7.88012 12.8976 7.19375 12.8976H3.35254V8.73535ZM16.5571 2.66981H23.3365V0.727539H16.5571V2.66981ZM19.9878 3.75879C21.0068 3.75879 21.9234 3.93995 22.7392 4.30078C23.5565 4.66013 24.2294 5.23034 24.7592 6.00844C25.2423 6.69447 25.5524 7.49039 25.6939 8.39471C25.7767 8.92334 25.8098 9.68955 25.7962 10.6859H17.2724C17.3236 11.8427 17.727 12.6549 18.4976 13.1197C18.9642 13.4093 19.5257 13.5548 20.1849 13.5548C20.8788 13.5548 21.4463 13.3781 21.8813 13.0262C22.1206 12.8346 22.3313 12.5703 22.512 12.2317H25.6352C25.5524 12.9148 25.1731 13.6112 24.5018 14.318C23.4542 15.4392 21.9866 16.0005 20.1007 16.0005C18.5428 16.0005 17.1686 15.5283 15.981 14.5809C14.7874 13.635 14.1943 12.0936 14.1943 9.9613C14.1943 7.96111 14.7317 6.42719 15.8049 5.35953C16.8811 4.29484 18.2734 3.75879 19.9878 3.75879ZM19.9893 6.24902C19.2066 6.24902 18.5955 6.46879 18.1635 6.90833C17.7315 7.34786 17.4591 7.94332 17.3477 8.69468H22.6204C22.5647 7.89283 22.2907 7.28698 21.8061 6.86972C21.3154 6.45543 20.7118 6.24902 19.9893 6.24902Z" fill="#868F98"/>
</svg>
