<svg width="22" height="20" viewBox="0 0 22 20" fill="none" xmlns="http://www.w3.org/2000/svg">
    <path d="M11.3892 1.05703C11.9099 0.536329 12.7541 0.536329 13.2748 1.05703L21.2748 9.05703C21.5249 9.30708 21.6654 9.64622 21.6654 9.99984C21.6654 10.3535 21.5249 10.6926 21.2748 10.9426L13.2748 18.9426C12.7541 19.4633 11.9099 19.4633 11.3892 18.9426C10.8685 18.4219 10.8685 17.5777 11.3892 17.057L17.1131 11.3332L1.66536 11.3332C0.928985 11.3332 0.332031 10.7362 0.332031 9.99984C0.332031 9.26346 0.928985 8.66651 1.66536 8.66651H17.1131L11.3892 2.94265C10.8685 2.42195 10.8685 1.57773 11.3892 1.05703Z" fill="white"/>
</svg>
