<svg width="160" height="160" viewBox="0 0 160 160" fill="none" xmlns="http://www.w3.org/2000/svg">
    <path d="M0.472656 79.8438C0.472656 91.8531 12.1995 103.064 30.687 109.383C26.9952 127.969 30.0258 142.949 40.147 148.786C50.5502 154.786 66.0489 150.633 80.7595 137.774C95.0989 150.114 109.591 154.97 119.703 149.116C130.097 143.099 133.258 127.103 129.464 107.937C148.72 101.571 159.491 92.0113 159.491 79.8438C159.491 68.1131 147.743 57.965 129.505 51.6862C133.589 31.7281 130.128 17.1113 119.588 11.0331C109.426 5.17313 94.7652 10.2806 80.2152 22.9431C65.0777 9.50313 50.562 5.4 40.0327 11.495C29.8802 17.3719 26.9833 32.625 30.687 51.5544C12.8233 57.7825 0.472656 68.1606 0.472656 79.8438Z" fill="#FAFAFA"/>
    <path d="M125.637 57.9212C124.134 57.4056 122.618 56.928 121.091 56.4887C121.344 55.4596 121.578 54.4259 121.793 53.3881C125.235 36.6831 122.985 23.2256 115.301 18.7956C107.934 14.5469 95.8853 18.9769 83.7166 29.5662C82.5175 30.6121 81.345 31.688 80.2003 32.7931C79.4337 32.0583 78.6536 31.3378 77.8603 30.6319C65.1072 19.3081 52.3241 14.5369 44.6484 18.98C37.2884 23.2406 35.1084 35.8925 38.2066 51.7237C38.5148 53.2915 38.8628 54.8512 39.2503 56.4012C37.4416 56.915 35.6947 57.4625 34.0234 58.045C19.0722 63.2575 9.52344 71.4275 9.52344 79.9012C9.52344 88.6537 19.7734 97.4325 35.3472 102.755C36.61 103.185 37.8833 103.583 39.1659 103.949C38.7493 105.619 38.3793 107.3 38.0566 108.991C35.1028 124.547 37.4097 136.899 44.7503 141.133C52.3322 145.505 65.0572 141.011 77.4484 130.18C78.4278 129.324 79.4109 128.416 80.3953 127.464C81.6352 128.66 82.9082 129.822 84.2128 130.947C96.2153 141.275 108.069 145.446 115.403 141.2C122.978 136.815 125.44 123.546 122.243 107.401C122 106.168 121.715 104.909 121.397 103.626C122.29 103.362 123.167 103.09 124.023 102.806C140.213 97.4425 150.746 88.7706 150.746 79.9012C150.746 71.3969 140.89 63.1719 125.637 57.9212Z" fill="#53C1DE"/>
    <path d="M122.128 97.08C121.356 97.3356 120.564 97.5825 119.756 97.8218C117.969 92.1637 115.556 86.1468 112.605 79.9312C115.422 73.8625 117.74 67.9231 119.478 62.3012C120.922 62.72 122.325 63.1606 123.676 63.6262C136.745 68.1243 144.716 74.7762 144.716 79.9012C144.716 85.3606 136.106 92.4481 122.128 97.08ZM116.328 108.573C117.741 115.712 117.943 122.166 117.007 127.212C116.165 131.746 114.474 134.768 112.383 135.979C107.932 138.555 98.4142 135.206 88.1505 126.374C86.9736 125.361 85.788 124.28 84.5992 123.136C88.5786 118.784 92.5555 113.724 96.4367 108.105C103.264 107.499 109.714 106.509 115.564 105.157C115.851 106.319 116.107 107.459 116.328 108.573ZM57.6717 135.534C53.3236 137.069 49.8605 137.113 47.7673 135.906C43.3123 133.337 41.4611 123.419 43.9867 110.116C44.2871 108.543 44.6309 106.98 45.018 105.427C50.8023 106.706 57.2055 107.627 64.0492 108.182C67.9561 113.68 72.048 118.734 76.1717 123.159C75.2953 124.007 74.3982 124.833 73.4811 125.637C68.0017 130.427 62.5111 133.824 57.6723 135.534H57.6717ZM37.3011 97.0462C30.4148 94.6925 24.728 91.6337 20.8298 88.2962C17.3273 85.2962 15.5586 82.3181 15.5586 79.9012C15.5586 74.7593 23.2255 68.2 36.0123 63.7418C37.6173 63.1847 39.2382 62.6747 40.873 62.2125C42.6405 67.9606 44.9586 73.9706 47.7561 80.0481C44.9223 86.2162 42.5711 92.3218 40.7873 98.1375C39.6165 97.8023 38.4541 97.4385 37.3011 97.0462ZM44.1298 50.565C41.4755 37.0006 43.238 26.7687 47.6736 24.2012C52.3986 21.4662 62.8455 25.3662 73.8567 35.1431C74.5605 35.7681 75.2673 36.4225 75.9755 37.0993C71.873 41.505 67.8186 46.5206 63.9455 51.9868C57.3036 52.6025 50.9455 53.5912 45.1005 54.9156C44.7404 53.4736 44.4168 52.0233 44.1298 50.565ZM105.047 65.6068C103.666 63.2221 102.234 60.8674 100.752 58.5443C105.259 59.1131 109.575 59.8693 113.629 60.795C112.412 64.6956 110.895 68.7743 109.109 72.9556C107.804 70.4792 106.45 68.0291 105.047 65.6068ZM80.2048 41.4106C82.9873 44.425 85.7742 47.7912 88.5155 51.4431C82.9548 51.1803 77.385 51.1791 71.8242 51.4393C74.568 47.8212 77.3786 44.46 80.2048 41.4106ZM55.2036 65.6481C53.8182 68.0511 52.4891 70.4862 51.2173 72.9512C49.4605 68.7843 47.9573 64.6875 46.7298 60.7312C50.7592 59.8293 55.0561 59.0925 59.533 58.5331C58.0343 60.8705 56.5908 63.2429 55.2036 65.6481ZM59.6617 101.7C55.0367 101.184 50.6748 100.484 46.6467 99.6075C47.8936 95.5812 49.4298 91.3962 51.2242 87.14C52.5013 89.6068 53.8363 92.0434 55.228 94.4475C56.648 96.8999 58.1264 99.318 59.6617 101.7ZM80.3717 118.818C77.5123 115.732 74.6605 112.32 71.8748 108.649C74.5786 108.756 77.3355 108.809 80.1373 108.809C83.0161 108.809 85.8617 108.745 88.6623 108.62C85.9123 112.357 83.1355 115.775 80.3717 118.818ZM109.167 86.9231C111.054 91.2256 112.645 95.3881 113.909 99.3462C109.814 100.281 105.394 101.033 100.735 101.592C102.228 99.2254 103.674 96.8295 105.071 94.4056C106.492 91.9421 107.857 89.4473 109.167 86.9231ZM99.8448 91.3918C97.7056 95.1081 95.4461 98.7537 93.0698 102.323C88.8798 102.622 84.5498 102.777 80.1373 102.777C75.743 102.777 71.468 102.64 67.3511 102.373C64.9132 98.812 62.611 95.1601 60.4492 91.425C58.2976 87.7097 56.2878 83.914 54.4242 80.0462C56.2831 76.1772 58.2868 72.3796 60.4311 68.6612V68.6625C62.5748 64.9433 64.8589 61.307 67.2786 57.7612C71.4786 57.4437 75.7848 57.2775 80.138 57.2775C84.5105 57.2775 88.8223 57.445 93.0211 57.765C95.4163 61.3053 97.6858 64.929 99.8255 68.6293C101.977 72.3394 104.008 76.1185 105.914 79.9606C104.027 83.8418 102.003 87.6547 99.8448 91.3918ZM112.29 24.0218C117.019 26.7493 118.859 37.7475 115.887 52.1706C115.693 53.1102 115.481 54.0462 115.252 54.9781C109.394 53.6262 103.031 52.62 96.3698 51.995C92.4892 46.4693 88.4686 41.445 84.4323 37.0962C85.49 36.0766 86.5728 35.0833 87.6798 34.1175C98.1061 25.0437 107.85 21.4612 112.29 24.0218Z" fill="#FAFAFA"/>
    <path d="M80.138 67.2905C87.103 67.2905 92.7486 72.9368 92.7486 79.9012C92.7486 86.8662 87.103 92.5124 80.138 92.5124C73.1736 92.5124 67.5273 86.8662 67.5273 79.9012C67.5273 72.9368 73.1736 67.2905 80.138 67.2905Z" fill="#53C1DE"/>
</svg>
