<svg xmlns="http://www.w3.org/2000/svg" width="40" height="40" fill="none">
    <g stroke="#06F" clip-path="url(#a)">
        <circle cx="20" cy="20" r="19.5"/>
        <path d="M39.5 20c0 .92-.47 1.85-1.42 2.75-.95.9-2.35 1.73-4.12 2.44C30.4 26.61 25.48 27.5 20 27.5s-10.41-.89-13.96-2.3a13.16 13.16 0 0 1-4.12-2.45C.97 21.85.5 20.92.5 20c0-.92.47-1.85 1.42-2.75.95-.9 2.35-1.73 4.12-2.44C9.6 13.39 14.52 12.5 20 12.5s10.41.89 13.96 2.3c1.77.72 3.17 1.55 4.12 2.45.95.9 1.42 1.83 1.42 2.75Z"/>
        <path d="M20 .5c.92 0 1.85.47 2.75 1.42.9.95 1.73 2.35 2.44 4.12C26.61 9.6 27.5 14.52 27.5 20s-.89 10.41-2.3 13.96a13.16 13.16 0 0 1-2.45 4.12c-.9.95-1.83 1.42-2.75 1.42-.92 0-1.85-.47-2.75-1.42-.9-.95-1.73-2.35-2.44-4.12C13.39 30.4 12.5 25.48 12.5 20s.89-10.41 2.3-13.96a13.16 13.16 0 0 1 2.45-4.12C18.15.97 19.08.5 20 .5Z"/>
    </g>
    <defs>
        <clipPath id="a">
            <path fill="#fff" d="M0 0h40v40H0z"/>
        </clipPath>
    </defs>
</svg>