<svg width="26" height="26" viewBox="0 0 26 26" fill="none" xmlns="http://www.w3.org/2000/svg">
<path fill-rule="evenodd" clip-rule="evenodd" d="M25.7992 12.9825C25.7992 12.1162 25.7111 11.2499 25.538 10.4091C25.3692 9.58649 25.1192 8.77763 24.7917 8.00685C24.4717 7.24797 24.0748 6.51646 23.6111 5.83487C23.1542 5.15709 22.6279 4.52293 22.0497 3.9431C21.4704 3.36638 20.8328 2.84278 20.1559 2.38468C19.4721 1.92217 18.7402 1.52584 17.9814 1.20381C17.2082 0.877377 16.3988 0.627136 15.5769 0.459842C14.7331 0.287595 13.8656 0.200195 12.9987 0.200195C12.1312 0.200195 11.2636 0.287595 10.4211 0.459842C9.59787 0.627086 8.7885 0.877327 8.01595 1.20381C7.25718 1.52589 6.52461 1.92217 5.84084 2.38468C5.16393 2.84278 4.5264 3.36638 3.94824 3.9431C3.36948 4.52293 2.84317 5.15709 2.38565 5.83487C1.92438 6.51646 1.52683 7.24792 1.20559 8.00685C0.87803 8.77763 0.627428 9.58649 0.458038 10.4091C0.286694 11.2499 0.199219 12.1162 0.199219 12.9825C0.199219 13.8481 0.286744 14.7125 0.457988 15.5552C0.627378 16.3777 0.87798 17.1854 1.20554 17.9574C1.52678 18.7157 1.92433 19.4466 2.3856 20.1281C2.84312 20.8054 3.36943 21.4407 3.94819 22.0199C4.52635 22.5966 5.16388 23.1215 5.84079 23.5802C6.52456 24.0408 7.25713 24.4371 8.0159 24.7586C8.78845 25.0844 9.59787 25.334 10.421 25.5025C11.2636 25.6761 12.1311 25.7647 12.9986 25.7647C13.8655 25.7647 14.7331 25.6761 15.5769 25.5025C16.3988 25.334 17.2082 25.0844 17.9814 24.7586C18.7402 24.4371 19.4721 24.0408 20.1558 23.5802C20.8328 23.1214 21.4703 22.5966 22.0497 22.0199C22.6279 21.4407 23.1542 20.8054 23.611 20.1281C24.0748 19.4466 24.4717 18.7158 24.7917 17.9574C25.1192 17.1854 25.3692 16.3778 25.538 15.5552C25.7111 14.7125 25.7992 13.8481 25.7992 12.9825ZM15.3506 10.3668C19.6389 8.61801 21.3972 6.10947 21.4398 6.04872L21.4404 6.04785C22.9741 7.9071 23.9011 10.2819 23.9261 12.8695L23.9131 12.8669C23.6262 12.8072 19.9965 12.0523 16.3132 12.5151C16.2363 12.3279 16.1576 12.1406 16.0769 11.9496C15.85 11.4172 15.6044 10.8874 15.3506 10.3668ZM16.9794 14.2378C18.4132 18.1724 18.9958 21.3767 19.107 22.0345C21.5615 20.3806 23.3047 17.7543 23.791 14.7121C23.566 14.6398 20.5077 13.673 16.9794 14.2378ZM14.9312 14.7432C16.4694 18.7351 17.1044 22.0779 17.2663 23.0316C15.9543 23.5889 14.5124 23.8967 12.9986 23.8967C10.4635 23.8967 8.13585 23.0272 6.28009 21.5861C6.30288 21.5367 8.40908 17.0121 14.8587 14.7669C14.8738 14.7613 14.8892 14.7565 14.9046 14.7517L14.9046 14.7517L14.9312 14.7432ZM20.2168 4.79126L20.2177 4.78982C18.2932 3.09526 15.7663 2.06738 12.9986 2.06738C12.1104 2.06738 11.2485 2.17474 10.4229 2.37321L10.4406 2.39699L10.4406 2.397L10.4406 2.39701C10.6995 2.74328 12.6913 5.40726 14.5093 8.74054C18.6002 7.20911 20.1652 4.86841 20.2168 4.79126ZM13.2992 11.0801C13.6123 11.693 13.9118 12.3146 14.1861 12.935C14.0424 12.9761 13.8974 13.0186 13.7549 13.066C7.85584 14.9709 4.86439 20.2704 4.86815 20.276C3.12681 18.343 2.06738 15.7866 2.06738 12.9824C2.06738 12.9014 2.07005 12.8223 2.07274 12.7425L2.07274 12.7425L2.07275 12.7424C2.07396 12.7066 2.07517 12.6705 2.07615 12.6342C2.26989 12.6416 7.67082 12.7627 13.2992 11.0801ZM12.3936 9.39937C10.5016 6.04278 8.48025 3.30353 8.33461 3.10938C5.28629 4.54679 3.01118 7.35162 2.30176 10.7319L2.31227 10.732C2.68591 10.7355 7.20042 10.7772 12.3936 9.39937Z" fill="#868F98"/>
</svg>
