<svg width="26" height="26" viewBox="0 0 26 26" fill="none" xmlns="http://www.w3.org/2000/svg">
    <path fill-rule="evenodd" clip-rule="evenodd" d="M7.7225 0.277529C9.08784 0.215395 9.52412 0.200195 13.0004 0.200195H12.9964C16.4738 0.200195 16.9085 0.215395 18.2738 0.277529C19.6365 0.33993 20.5672 0.555666 21.3832 0.872202C22.2258 1.19887 22.9379 1.63621 23.6499 2.34822C24.3619 3.05969 24.7992 3.77383 25.1272 4.61571C25.4419 5.42958 25.6579 6.35973 25.7219 7.72241C25.7832 9.08775 25.7992 9.52403 25.7992 13.0003C25.7992 16.4766 25.7832 16.9118 25.7219 18.2772C25.6579 19.6393 25.4419 20.5697 25.1272 21.3839C24.7992 22.2255 24.3619 22.9396 23.6499 23.6511C22.9387 24.3631 22.2256 24.8015 21.384 25.1285C20.5696 25.445 19.6384 25.6607 18.2757 25.7231C16.9103 25.7853 16.4754 25.8005 12.9988 25.8005C9.52278 25.8005 9.08678 25.7853 7.72143 25.7231C6.35902 25.6607 5.42861 25.445 4.6142 25.1285C3.77286 24.8015 3.05872 24.3631 2.34751 23.6511C1.63577 22.9396 1.19843 22.2255 0.871226 21.3836C0.554956 20.5697 0.33922 19.6396 0.276553 18.2769C0.214686 16.9116 0.199219 16.4766 0.199219 13.0003C0.199219 9.52403 0.215219 9.08749 0.276286 7.72214C0.33762 6.35999 0.553622 5.42958 0.870959 4.61544C1.19896 3.77383 1.6363 3.05969 2.34831 2.34822C3.05978 1.63648 3.77392 1.19914 4.6158 0.872202C5.42967 0.555666 6.35982 0.33993 7.7225 0.277529ZM12.5738 2.50698H12.5735C12.3148 2.50687 12.075 2.50676 11.8521 2.50711V2.50391C9.4665 2.50657 9.00889 2.52257 7.82808 2.57591C6.58007 2.63324 5.90246 2.84124 5.45126 3.01725C4.85392 3.24978 4.42724 3.52712 3.97924 3.97512C3.53124 4.42313 3.25337 4.8498 3.02136 5.44714C2.84616 5.89834 2.63763 6.57568 2.58056 7.8237C2.51922 9.17304 2.50696 9.57625 2.50696 12.9944C2.50696 16.4126 2.51922 16.8179 2.58056 18.1673C2.63736 19.4153 2.84616 20.0926 3.02136 20.5433C3.2539 21.1409 3.53124 21.5665 3.97924 22.0145C4.42724 22.4625 4.85392 22.7399 5.45126 22.9719C5.90273 23.1471 6.58007 23.3556 7.82808 23.4132C9.17743 23.4745 9.5825 23.4879 13.0004 23.4879C16.418 23.4879 16.8234 23.4745 18.1727 23.4132C19.4207 23.3561 20.0986 23.1481 20.5493 22.9721C21.1469 22.7401 21.5722 22.4628 22.0202 22.0148C22.4682 21.567 22.7461 21.1417 22.9781 20.5444C23.1533 20.0937 23.3618 19.4163 23.4189 18.1683C23.4802 16.819 23.4936 16.4137 23.4936 12.9976C23.4936 9.58158 23.4802 9.17624 23.4189 7.8269C23.3621 6.57888 23.1533 5.90154 22.9781 5.45087C22.7456 4.85353 22.4682 4.42686 22.0202 3.97886C21.5725 3.53085 21.1466 3.25351 20.5493 3.02151C20.0981 2.84631 19.4207 2.63777 18.1727 2.58071C16.8231 2.51937 16.418 2.50711 13.0004 2.50711L12.5738 2.50698ZM19.833 4.63237C18.985 4.63237 18.297 5.31958 18.297 6.16785C18.297 7.01586 18.985 7.70387 19.833 7.70387C20.681 7.70387 21.369 7.01586 21.369 6.16785C21.369 5.31984 20.681 4.63184 19.833 4.63184V4.63237ZM13.0004 6.42676C9.37023 6.42676 6.427 9.36999 6.427 13.0002C6.427 16.6303 9.37023 19.5722 13.0004 19.5722C16.6306 19.5722 19.5727 16.6303 19.5727 13.0002C19.5727 9.37008 16.6305 6.4269 13.0004 6.42676ZM13.0004 8.7334C15.3567 8.7334 17.2671 10.6436 17.2671 13.0001C17.2671 15.3564 15.3567 17.2668 13.0004 17.2668C10.6439 17.2668 8.7337 15.3564 8.7337 13.0001C8.7337 10.6436 10.6439 8.7334 13.0004 8.7334Z" fill="#868F98"/>
</svg>
