<svg width="22" height="20" viewBox="0 0 22 20" fill="none" xmlns="http://www.w3.org/2000/svg">
    <path d="M10.6082 1.05703C11.1289 1.57773 11.1289 2.42195 10.6082 2.94265L4.88432 8.6665H20.332C21.0684 8.6665 21.6654 9.26346 21.6654 9.99984C21.6654 10.7362 21.0684 11.3332 20.332 11.3332H4.88432L10.6082 17.057C11.1289 17.5777 11.1289 18.4219 10.6082 18.9426C10.0875 19.4633 9.24325 19.4633 8.72256 18.9426L0.722555 10.9426C0.472507 10.6926 0.332031 10.3535 0.332031 9.99984C0.332031 9.64622 0.472507 9.30708 0.722556 9.05703L8.72256 1.05703C9.24325 0.536329 10.0875 0.536329 10.6082 1.05703Z" fill="#172B41"/>
</svg>
