<svg width="117" height="120" viewBox="0 0 117 120" fill="none" xmlns="http://www.w3.org/2000/svg">
    <path d="M75.7121 75.9178C73.5067 75.8507 71.3567 76.6157 69.6894 78.0608C68.022 79.5058 66.9592 81.5252 66.7121 83.7178C66.7011 83.7602 66.7002 83.8047 66.7094 83.8476C66.7186 83.8905 66.7376 83.9306 66.765 83.9649C66.7924 83.9991 66.8274 84.0265 66.8672 84.0449C66.9071 84.0633 66.9506 84.0721 66.9945 84.0707H84.4649C84.5052 84.071 84.545 84.0627 84.5818 84.0464C84.6186 84.03 84.6514 84.006 84.6782 83.9759C84.7049 83.9459 84.7249 83.9104 84.7368 83.872C84.7488 83.8335 84.7523 83.793 84.7473 83.7531C84.5755 81.5208 83.5306 79.4462 81.8392 77.9794C80.1477 76.5126 77.9462 75.7718 75.7121 75.9178Z" fill="#01A71C"/>
    <path d="M113.156 17.3294L76.0975 58.9412C75.9917 59.0556 75.8634 59.1469 75.7207 59.2093C75.578 59.2718 75.4239 59.304 75.2681 59.304C75.1123 59.304 74.9582 59.2718 74.8154 59.2093C74.6727 59.1469 74.5444 59.0556 74.4387 58.9412L55.5211 39.4235C55.3608 39.2232 55.2734 38.9743 55.2734 38.7176C55.2734 38.461 55.3608 38.2121 55.5211 38.0118L61.7682 30C61.8727 29.8543 62.0105 29.7355 62.1701 29.6536C62.3297 29.5717 62.5064 29.529 62.6858 29.529C62.8652 29.529 63.042 29.5717 63.2015 29.6536C63.3611 29.7355 63.4989 29.8543 63.6034 30L74.1916 41.7176C74.2976 41.8438 74.4299 41.9453 74.5793 42.0149C74.7287 42.0845 74.8915 42.1205 75.0563 42.1205C75.2211 42.1205 75.3839 42.0845 75.5333 42.0149C75.6826 41.9453 75.815 41.8438 75.921 41.7176L105.427 1.27059C105.509 1.15106 105.557 1.01172 105.567 0.867068C105.577 0.722412 105.548 0.577718 105.484 0.448025C105.419 0.318333 105.32 0.208377 105.199 0.129587C105.077 0.050798 104.936 0.0060517 104.791 0L0.886253 0C0.65224 0 0.427812 0.0929619 0.26234 0.258435C0.0968675 0.423908 0.00390625 0.648338 0.00390625 0.882353L0.00390625 119.118C0.00390625 119.352 0.0968675 119.576 0.26234 119.742C0.427812 119.907 0.65224 120 0.886253 120H113.827C114.061 120 114.285 119.907 114.451 119.742C114.616 119.576 114.709 119.352 114.709 119.118V17.8588C114.779 17.6529 114.765 17.4275 114.669 17.2322C114.573 17.037 114.403 16.8879 114.197 16.8176C113.991 16.7474 113.766 16.7619 113.571 16.8579C113.375 16.9539 113.226 17.1235 113.156 17.3294ZM31.9801 106.835C24.5659 107.209 17.2982 104.677 11.7215 99.7765C11.5453 99.5766 11.4481 99.3194 11.4481 99.0529C11.4481 98.7865 11.5453 98.5293 11.7215 98.3294L16.1332 92.1529C16.206 92.0264 16.3035 91.9158 16.4197 91.8275C16.536 91.7392 16.6688 91.6751 16.8102 91.6389C16.9516 91.6028 17.0989 91.5953 17.2432 91.6169C17.3876 91.6385 17.5262 91.6887 17.6508 91.7647C21.681 95.5012 26.9785 97.5697 32.4743 97.5529C38.2625 97.5529 41.086 94.8706 41.086 92.0471C41.086 83.2941 12.5685 89.2941 12.5685 70.6588C12.5685 62.4353 19.6273 55.5882 31.3449 55.5882C38.0693 55.3491 44.6525 57.5561 49.8741 61.8C50.0704 62.0039 50.18 62.2758 50.18 62.5588C50.18 62.8418 50.0704 63.1138 49.8741 63.3176L45.533 69.3529C45.4433 69.473 45.33 69.5733 45.2 69.6478C45.07 69.7222 44.9261 69.7692 44.7772 69.7857C44.6283 69.8023 44.4775 69.7881 44.3344 69.744C44.1912 69.6999 44.0586 69.6269 43.9448 69.5294C40.0945 66.4692 35.3099 64.8245 30.3919 64.8706C25.8743 64.8706 23.3331 66.8824 23.3331 69.8471C23.3331 77.7177 51.78 72.4588 51.78 91.0235C51.78 99.9882 45.3212 106.835 31.9449 106.835H31.9801ZM94.1679 89.6471C94.1729 89.7782 94.1507 89.9089 94.1028 90.031C94.0549 90.1532 93.9823 90.2641 93.8895 90.3569C93.7967 90.4496 93.6858 90.5223 93.5637 90.5702C93.4415 90.6181 93.3108 90.6403 93.1797 90.6353H67.0622C67.0204 90.6397 66.9799 90.6523 66.943 90.6725C66.9061 90.6927 66.8736 90.7199 66.8473 90.7528C66.8211 90.7856 66.8016 90.8233 66.79 90.8637C66.7784 90.9042 66.775 90.9465 66.7799 90.9882C67.2034 93.4288 68.5249 95.6226 70.4844 97.1379C72.4438 98.6532 74.8994 99.3804 77.368 99.1765C80.6075 99.1079 83.753 98.0758 86.4033 96.2118C86.5067 96.1251 86.6274 96.0613 86.7573 96.0247C86.8872 95.9882 87.0234 95.9796 87.1569 95.9996C87.2903 96.0196 87.418 96.0678 87.5315 96.1409C87.645 96.2139 87.7416 96.3103 87.815 96.4235L90.9915 101.047C91.1238 101.252 91.1754 101.5 91.1363 101.741C91.0972 101.982 90.9702 102.2 90.7797 102.353C86.5863 105.413 81.4989 107.001 76.3092 106.871C73.7167 107.015 71.1226 106.616 68.6933 105.7C66.2639 104.783 64.0528 103.369 62.2019 101.548C60.351 99.7272 58.9011 97.5395 57.9451 95.1254C56.9891 92.7112 56.5482 90.1239 56.6506 87.5294C56.5786 84.9971 57.0208 82.4766 57.9504 80.12C58.88 77.7634 60.2777 75.6198 62.0591 73.8186C63.8405 72.0174 65.9685 70.5961 68.3147 69.6405C70.6608 68.6849 73.1763 68.2149 75.7092 68.2588C86.6856 68.2588 94.1326 76.4824 94.1326 88.5176L94.1679 89.6471Z" fill="#01A71C"/>
</svg>
